# xmcd
#
# Track frame offsets:
#	183
#	22993
#	47140
#	69973
#	87185
#	107670
#	125315
#	152788
#	171800
#	199005
#
# Disc length: 3065 seconds
#
# Revision: 2
# Processed by: cddbd v1.5.2PL0 Copyright (c) Steve Scherf et al.
# Submitted via: audiograbber 1.83.01
#
DISCID=770bf70a
DTITLE=Ray Barretto - Indestructible
DYEAR=1993
DGENRE=Salsa
TTITLE0=El hijo de Obatalá
TTITLE1=El diablo
TTITLE2=Yo tengo un amor
TTITLE3=La familia
TTITLE4=La orquesta
TTITLE5=Llanto de cocodrilo
TTITLE6=Ay no
TTITLE7=Indestructible
TTITLE8=Adelante siempre voy
TTITLE9=Algo nuevo
EXTD=YEAR: 1993
EXTT0=
EXTT1=
EXTT2=
EXTT3=
EXTT4=
EXTT5=
EXTT6=
EXTT7=
EXTT8=
EXTT9=
PLAYORDER=
